<svg width="87" height="14" viewBox="0 0 87 14" fill="none" xmlns="http://www.w3.org/2000/svg">
<path d="M5.426 13.18C4.382 13.18 3.476 13.006 2.708 12.658C1.94 12.298 1.346 11.752 0.926 11.02C0.506 10.276 0.296 9.328 0.296 8.176V0.85C0.296 0.717999 0.338 0.609999 0.422 0.526C0.506 0.441999 0.608 0.399999 0.728 0.399999H2.366C2.498 0.399999 2.6 0.441999 2.672 0.526C2.756 0.609999 2.798 0.717999 2.798 0.85V8.176C2.798 9.16 3.032 9.892 3.5 10.372C3.968 10.84 4.61 11.074 5.426 11.074C6.242 11.074 6.878 10.84 7.334 10.372C7.802 9.892 8.036 9.16 8.036 8.176V0.85C8.036 0.717999 8.078 0.609999 8.162 0.526C8.246 0.441999 8.354 0.399999 8.486 0.399999H10.106C10.238 0.399999 10.34 0.441999 10.412 0.526C10.496 0.609999 10.538 0.717999 10.538 0.85V8.176C10.538 9.328 10.328 10.276 9.908 11.02C9.5 11.752 8.912 12.298 8.144 12.658C7.388 13.006 6.482 13.18 5.426 13.18ZM15.126 13C14.994 13 14.886 12.958 14.802 12.874C14.718 12.79 14.676 12.688 14.676 12.568V0.85C14.676 0.717999 14.718 0.609999 14.802 0.526C14.886 0.441999 14.994 0.399999 15.126 0.399999H16.548C16.716 0.399999 16.842 0.447999 16.926 0.543999C17.01 0.627999 17.064 0.693999 17.088 0.741999L20.562 7.222L24.072 0.741999C24.096 0.693999 24.15 0.627999 24.234 0.543999C24.318 0.447999 24.444 0.399999 24.612 0.399999H26.016C26.148 0.399999 26.256 0.441999 26.34 0.526C26.424 0.609999 26.466 0.717999 26.466 0.85V12.568C26.466 12.688 26.424 12.79 26.34 12.874C26.256 12.958 26.148 13 26.016 13H24.504C24.372 13 24.264 12.958 24.18 12.874C24.108 12.79 24.072 12.688 24.072 12.568V4.774L21.552 9.58C21.492 9.688 21.414 9.784 21.318 9.868C21.222 9.94 21.096 9.976 20.94 9.976H20.202C20.034 9.976 19.902 9.94 19.806 9.868C19.722 9.784 19.65 9.688 19.59 9.58L17.07 4.774V12.568C17.07 12.688 17.028 12.79 16.944 12.874C16.86 12.958 16.758 13 16.638 13H15.126ZM31.1379 13C31.0179 13 30.9159 12.958 30.8319 12.874C30.7479 12.79 30.7059 12.688 30.7059 12.568V0.85C30.7059 0.717999 30.7479 0.609999 30.8319 0.526C30.9159 0.441999 31.0179 0.399999 31.1379 0.399999H36.3579C37.3299 0.399999 38.1219 0.549999 38.7339 0.85C39.3459 1.138 39.7959 1.54 40.0839 2.056C40.3839 2.572 40.5339 3.172 40.5339 3.856C40.5339 4.312 40.4499 4.714 40.2819 5.062C40.1259 5.398 39.9279 5.674 39.6879 5.89C39.4599 6.106 39.2319 6.274 39.0039 6.394C39.4719 6.61 39.8859 6.97 40.2459 7.474C40.6059 7.978 40.7859 8.578 40.7859 9.274C40.7859 9.994 40.6239 10.636 40.2999 11.2C39.9759 11.764 39.4959 12.208 38.8599 12.532C38.2239 12.844 37.4379 13 36.5019 13H31.1379ZM33.2079 11.092H36.2139C36.8619 11.092 37.3539 10.918 37.6899 10.57C38.0259 10.21 38.1939 9.778 38.1939 9.274C38.1939 8.746 38.0199 8.308 37.6719 7.96C37.3359 7.612 36.8499 7.438 36.2139 7.438H33.2079V11.092ZM33.2079 5.566H36.0339C36.6699 5.566 37.1439 5.416 37.4559 5.116C37.7799 4.804 37.9419 4.402 37.9419 3.91C37.9419 3.406 37.7799 3.016 37.4559 2.74C37.1439 2.452 36.6699 2.308 36.0339 2.308H33.2079V5.566ZM44.9177 13C44.7977 13 44.6957 12.958 44.6117 12.874C44.5277 12.79 44.4857 12.688 44.4857 12.568V0.85C44.4857 0.717999 44.5277 0.609999 44.6117 0.526C44.6957 0.441999 44.7977 0.399999 44.9177 0.399999H49.5797C51.0317 0.399999 52.1777 0.735999 53.0177 1.408C53.8577 2.08 54.2777 3.058 54.2777 4.342C54.2777 5.23 54.0557 5.968 53.6117 6.556C53.1797 7.144 52.5977 7.57 51.8657 7.834L54.4937 12.424C54.5297 12.496 54.5477 12.562 54.5477 12.622C54.5477 12.73 54.5057 12.82 54.4217 12.892C54.3497 12.964 54.2657 13 54.1697 13H52.5317C52.3277 13 52.1717 12.946 52.0637 12.838C51.9557 12.73 51.8717 12.622 51.8117 12.514L49.4897 8.248H46.9877V12.568C46.9877 12.688 46.9457 12.79 46.8617 12.874C46.7897 12.958 46.6877 13 46.5557 13H44.9177ZM46.9877 6.214H49.5257C50.2577 6.214 50.8037 6.052 51.1637 5.728C51.5237 5.392 51.7037 4.924 51.7037 4.324C51.7037 3.724 51.5237 3.256 51.1637 2.92C50.8157 2.572 50.2697 2.398 49.5257 2.398H46.9877V6.214ZM58.469 13C58.349 13 58.247 12.958 58.163 12.874C58.079 12.79 58.037 12.688 58.037 12.568V0.831999C58.037 0.711999 58.079 0.609999 58.163 0.526C58.247 0.441999 58.349 0.399999 58.469 0.399999H60.161C60.293 0.399999 60.395 0.441999 60.467 0.526C60.551 0.609999 60.593 0.711999 60.593 0.831999V12.568C60.593 12.688 60.551 12.79 60.467 12.874C60.395 12.958 60.293 13 60.161 13H58.469ZM65.288 13C65.168 13 65.066 12.958 64.982 12.874C64.898 12.79 64.856 12.688 64.856 12.568V0.85C64.856 0.717999 64.898 0.609999 64.982 0.526C65.066 0.441999 65.168 0.399999 65.288 0.399999H73.208C73.34 0.399999 73.448 0.441999 73.532 0.526C73.616 0.609999 73.658 0.717999 73.658 0.85V2.038C73.658 2.158 73.616 2.26 73.532 2.344C73.448 2.428 73.34 2.47 73.208 2.47H67.286V5.656H72.812C72.944 5.656 73.052 5.698 73.136 5.782C73.22 5.854 73.262 5.956 73.262 6.088V7.204C73.262 7.336 73.22 7.444 73.136 7.528C73.052 7.6 72.944 7.636 72.812 7.636H67.286V10.93H73.352C73.484 10.93 73.592 10.972 73.676 11.056C73.76 11.14 73.802 11.248 73.802 11.38V12.568C73.802 12.688 73.76 12.79 73.676 12.874C73.592 12.958 73.484 13 73.352 13H65.288ZM77.9252 13C77.8052 13 77.7032 12.958 77.6192 12.874C77.5352 12.79 77.4932 12.688 77.4932 12.568V0.831999C77.4932 0.711999 77.5352 0.609999 77.6192 0.526C77.7032 0.441999 77.8052 0.399999 77.9252 0.399999H79.5992C79.7192 0.399999 79.8212 0.441999 79.9052 0.526C79.9892 0.609999 80.0312 0.711999 80.0312 0.831999V10.858H85.7372C85.8692 10.858 85.9772 10.9 86.0612 10.984C86.1452 11.068 86.1872 11.176 86.1872 11.308V12.568C86.1872 12.688 86.1452 12.79 86.0612 12.874C85.9772 12.958 85.8692 13 85.7372 13H77.9252Z" fill="#27272A"/>
</svg>
