<svg width="87" height="14" viewBox="0 0 87 14" fill="none" xmlns="http://www.w3.org/2000/svg">
<path d="M5.42601 13.18C4.38201 13.18 3.47601 13.006 2.70801 12.658C1.94001 12.298 1.34601 11.752 0.926005 11.02C0.506005 10.276 0.296005 9.32799 0.296005 8.17599V0.849995C0.296005 0.717994 0.338005 0.609994 0.422005 0.525995C0.506005 0.441994 0.608005 0.399994 0.728005 0.399994H2.36601C2.49801 0.399994 2.60001 0.441994 2.67201 0.525995C2.75601 0.609994 2.79801 0.717994 2.79801 0.849995V8.17599C2.79801 9.15999 3.03201 9.89199 3.50001 10.372C3.96801 10.84 4.61001 11.074 5.42601 11.074C6.24201 11.074 6.87801 10.84 7.33401 10.372C7.80201 9.89199 8.03601 9.15999 8.03601 8.17599V0.849995C8.03601 0.717994 8.078 0.609994 8.162 0.525995C8.246 0.441994 8.35401 0.399994 8.48601 0.399994H10.106C10.238 0.399994 10.34 0.441994 10.412 0.525995C10.496 0.609994 10.538 0.717994 10.538 0.849995V8.17599C10.538 9.32799 10.328 10.276 9.908 11.02C9.5 11.752 8.91201 12.298 8.14401 12.658C7.38801 13.006 6.48201 13.18 5.42601 13.18ZM15.126 13C14.994 13 14.886 12.958 14.802 12.874C14.718 12.79 14.676 12.688 14.676 12.568V0.849995C14.676 0.717994 14.718 0.609994 14.802 0.525995C14.886 0.441994 14.994 0.399994 15.126 0.399994H16.548C16.716 0.399994 16.842 0.447994 16.926 0.543994C17.01 0.627994 17.064 0.693994 17.088 0.741994L20.562 7.22199L24.072 0.741994C24.096 0.693994 24.15 0.627994 24.234 0.543994C24.318 0.447994 24.444 0.399994 24.612 0.399994H26.016C26.148 0.399994 26.256 0.441994 26.34 0.525995C26.424 0.609994 26.466 0.717994 26.466 0.849995V12.568C26.466 12.688 26.424 12.79 26.34 12.874C26.256 12.958 26.148 13 26.016 13H24.504C24.372 13 24.264 12.958 24.18 12.874C24.108 12.79 24.072 12.688 24.072 12.568V4.77399L21.552 9.58C21.492 9.688 21.414 9.784 21.318 9.868C21.222 9.94 21.096 9.976 20.94 9.976H20.202C20.034 9.976 19.902 9.94 19.806 9.868C19.722 9.784 19.65 9.688 19.59 9.58L17.07 4.77399V12.568C17.07 12.688 17.028 12.79 16.944 12.874C16.86 12.958 16.758 13 16.638 13H15.126ZM31.1379 13C31.0179 13 30.9159 12.958 30.8319 12.874C30.7479 12.79 30.7059 12.688 30.7059 12.568V0.849995C30.7059 0.717994 30.7479 0.609994 30.8319 0.525995C30.9159 0.441994 31.0179 0.399994 31.1379 0.399994H36.3579C37.3299 0.399994 38.1219 0.549994 38.7339 0.849995C39.3459 1.13799 39.7959 1.53999 40.0839 2.05599C40.3839 2.57199 40.5339 3.17199 40.5339 3.85599C40.5339 4.31199 40.4499 4.71399 40.2819 5.06199C40.1259 5.39799 39.9279 5.67399 39.6879 5.88999C39.4599 6.10599 39.2319 6.27399 39.0039 6.39399C39.4719 6.60999 39.8859 6.96999 40.2459 7.47399C40.6059 7.97799 40.7859 8.578 40.7859 9.274C40.7859 9.994 40.6239 10.636 40.2999 11.2C39.9759 11.764 39.4959 12.208 38.8599 12.532C38.2239 12.844 37.4379 13 36.5019 13H31.1379ZM33.2079 11.092H36.2139C36.8619 11.092 37.3539 10.918 37.6899 10.57C38.0259 10.21 38.1939 9.778 38.1939 9.274C38.1939 8.746 38.0199 8.30799 37.6719 7.95999C37.3359 7.61199 36.8499 7.43799 36.2139 7.43799H33.2079V11.092ZM33.2079 5.56599H36.0339C36.6699 5.56599 37.1439 5.41599 37.4559 5.11599C37.7799 4.80399 37.9419 4.402 37.9419 3.91C37.9419 3.406 37.7799 3.01599 37.4559 2.74C37.1439 2.452 36.6699 2.30799 36.0339 2.30799H33.2079V5.56599ZM44.9177 13C44.7977 13 44.6957 12.958 44.6117 12.874C44.5277 12.79 44.4857 12.688 44.4857 12.568V0.849995C44.4857 0.717994 44.5277 0.609994 44.6117 0.525995C44.6957 0.441994 44.7977 0.399994 44.9177 0.399994H49.5797C51.0317 0.399994 52.1777 0.735994 53.0177 1.40799C53.8577 2.07999 54.2777 3.05799 54.2777 4.342C54.2777 5.23 54.0557 5.96799 53.6117 6.55599C53.1797 7.14399 52.5977 7.56999 51.8657 7.83399L54.4937 12.424C54.5297 12.496 54.5477 12.562 54.5477 12.622C54.5477 12.73 54.5057 12.82 54.4217 12.892C54.3497 12.964 54.2657 13 54.1697 13H52.5317C52.3277 13 52.1717 12.946 52.0637 12.838C51.9557 12.73 51.8717 12.622 51.8117 12.514L49.4897 8.24799H46.9877V12.568C46.9877 12.688 46.9457 12.79 46.8617 12.874C46.7897 12.958 46.6877 13 46.5557 13H44.9177ZM46.9877 6.21399H49.5257C50.2577 6.21399 50.8037 6.05199 51.1637 5.72799C51.5237 5.39199 51.7037 4.92399 51.7037 4.32399C51.7037 3.72399 51.5237 3.256 51.1637 2.92C50.8157 2.572 50.2697 2.39799 49.5257 2.39799H46.9877V6.21399ZM58.469 13C58.349 13 58.247 12.958 58.163 12.874C58.079 12.79 58.037 12.688 58.037 12.568V0.831994C58.037 0.711994 58.079 0.609994 58.163 0.525995C58.247 0.441994 58.349 0.399994 58.469 0.399994H60.161C60.293 0.399994 60.395 0.441994 60.467 0.525995C60.551 0.609994 60.593 0.711994 60.593 0.831994V12.568C60.593 12.688 60.551 12.79 60.467 12.874C60.395 12.958 60.293 13 60.161 13H58.469ZM65.288 13C65.168 13 65.066 12.958 64.982 12.874C64.898 12.79 64.856 12.688 64.856 12.568V0.849995C64.856 0.717994 64.898 0.609994 64.982 0.525995C65.066 0.441994 65.168 0.399994 65.288 0.399994H73.208C73.34 0.399994 73.448 0.441994 73.532 0.525995C73.616 0.609994 73.658 0.717994 73.658 0.849995V2.03799C73.658 2.15799 73.616 2.25999 73.532 2.34399C73.448 2.42799 73.34 2.47 73.208 2.47H67.286V5.65599H72.812C72.944 5.65599 73.052 5.69799 73.136 5.78199C73.22 5.85399 73.262 5.95599 73.262 6.08799V7.20399C73.262 7.33599 73.22 7.44399 73.136 7.52799C73.052 7.59999 72.944 7.63599 72.812 7.63599H67.286V10.93H73.352C73.484 10.93 73.592 10.972 73.676 11.056C73.76 11.14 73.802 11.248 73.802 11.38V12.568C73.802 12.688 73.76 12.79 73.676 12.874C73.592 12.958 73.484 13 73.352 13H65.288ZM77.9252 13C77.8052 13 77.7032 12.958 77.6192 12.874C77.5352 12.79 77.4932 12.688 77.4932 12.568V0.831994C77.4932 0.711994 77.5352 0.609994 77.6192 0.525995C77.7032 0.441994 77.8052 0.399994 77.9252 0.399994H79.5992C79.7192 0.399994 79.8212 0.441994 79.9052 0.525995C79.9892 0.609994 80.0312 0.711994 80.0312 0.831994V10.858H85.7372C85.8692 10.858 85.9772 10.9 86.0612 10.984C86.1452 11.068 86.1872 11.176 86.1872 11.308V12.568C86.1872 12.688 86.1452 12.79 86.0612 12.874C85.9772 12.958 85.8692 13 85.7372 13H77.9252Z" fill="white"/>
</svg>
